<svg width="1728" height="1117" viewBox="0 0 1728 1117" fill="none" xmlns="http://www.w3.org/2000/svg">
<rect width="1728" height="1117" fill="#212121"/>
<circle cx="233" cy="182" r="4" fill="white"/>
<circle cx="154" cy="555" r="4" fill="white"/>
<circle cx="424.5" cy="100.5" r="2.5" fill="white"/>
<circle cx="741" cy="86" r="4" fill="white"/>
<circle cx="1590" cy="392" r="4" fill="#D9D9D9"/>
<circle cx="333.5" cy="657.5" r="2.5" fill="white"/>
<circle cx="1580.5" cy="747.5" r="2.5" fill="#D9D9D9"/>
<circle cx="1441.5" cy="1025.5" r="1.5" fill="#D9D9D9"/>
<circle cx="217" cy="999" r="4" fill="white"/>
<circle cx="454.5" cy="323.5" r="2.5" fill="white"/>
<circle cx="1668" cy="182" r="4" fill="#D9D9D9"/>
<circle cx="78" cy="54" r="6" fill="white"/>
<circle cx="52" cy="446" r="4" fill="#E95F28"/>
<circle cx="851.5" cy="288.5" r="7.5" fill="#D9D9D9"/>
<circle cx="712" cy="400" r="4" fill="#008AE6"/>
<circle cx="576" cy="515" r="4" fill="#D9D9D9"/>
<circle cx="941" cy="610" r="4" fill="white"/>
<circle cx="1306" cy="705" r="4" fill="#664500"/>
<circle cx="1136.5" cy="548.5" r="1.5" fill="white"/>
<circle cx="552.5" cy="754.5" r="1.5" fill="white"/>
<circle cx="390" cy="853" r="5" fill="#FFAC33"/>
<circle cx="209" cy="384" r="4" fill="white"/>
<circle cx="919" cy="890" r="4" fill="#664500"/>
<circle cx="615" cy="236" r="4" fill="#D9D9D9"/>
<circle cx="1590" cy="1020" r="4" fill="#D9D9D9"/>
<circle cx="1200" cy="967" r="4" fill="#D9D9D9"/>
<circle cx="1410.5" cy="842.5" r="2.5" fill="#D9D9D9"/>
<circle cx="1660" cy="894" r="4" fill="#D9D9D9"/>
<circle cx="1376" cy="450" r="4" fill="#008AE6"/>
<circle cx="485" cy="983" r="4" fill="#D9D9D9"/>
<circle cx="611" cy="1028" r="4" fill="#D9D9D9"/>
<circle cx="795" cy="989" r="10" fill="#D9D9D9"/>
<circle cx="118" cy="823" r="4" fill="white"/>
<circle cx="1022" cy="162" r="4" fill="#008AE6"/>
<circle cx="1135" cy="1036" r="4" fill="#D9D9D9"/>
<circle cx="1380" cy="94" r="4" fill="#D9D9D9"/>
<circle cx="1189" cy="314" r="1" fill="#D9D9D9"/>
</svg>
