<svg width="586" height="619" viewBox="0 0 586 619" fill="none" xmlns="http://www.w3.org/2000/svg">
<path fill-rule="evenodd" clip-rule="evenodd" d="M556.069 311.37C556.069 379.664 528.939 445.161 480.646 493.453C432.354 541.744 366.856 568.874 298.561 568.874C230.265 568.874 164.767 541.744 116.475 493.453C68.183 445.161 41.0527 379.664 41.0527 311.37C41.0527 243.076 68.183 177.579 116.475 129.288C164.767 80.9962 230.265 53.8665 298.561 53.8665C366.856 53.8665 432.354 80.9962 480.646 129.288C528.939 177.579 556.069 243.076 556.069 311.37Z" fill="url(#paint0_radial_709_60773)" stroke="black" stroke-width="3.00013" stroke-linecap="round" stroke-linejoin="round"/>
<path fill-rule="evenodd" clip-rule="evenodd" d="M113.051 486.145L132.179 484.934L134.936 479.553L139.452 464.48L144.389 477.218L149.305 485.102L149.45 477.337L151.644 472.782L157.681 472.355L160.437 481.189L151.692 460.717L151.433 480.199L157.72 489.622L166.382 497.334L168.694 501.933L176.388 509.289L188.229 510.999L191.892 512.283L194.499 508.01L203.763 503.732L217.872 500.333L222.559 503.222L226.083 497.159L228.063 486.699L224.14 483.133L217.207 483.542L212.871 479.694L213.444 471.301L218.004 437.508L213.136 460.204L202.865 461.074L200.019 467.919L192.3 470.817L195.272 478.89L192.767 486.566L185.209 486.562L181.964 492.216L163.649 443.156L177.106 485.581L183.516 482.385L185.767 479.079L186.67 471.533L183.927 468.456L184.564 467.075L181.465 464.964L171.154 462.784L168.428 457.903L170.659 457.292L177.891 462.217L181.44 461.004L172.798 420.629L187.221 458.286L190.852 433.853L212.928 452.513L215.669 456.484L220.5 458.273L230.609 446.09L216.583 476.463L227.477 475.122L229.607 463.554L243.835 455.095L247.202 465.252L259.953 466.07L270.583 463.339L275.483 466.36L280.064 465.85L304.26 479.62L291.896 468.462L286.426 460.504L288.175 458.38L287.341 452.053L298.754 440.177L309.777 436.194L327.739 462.017L334.57 450.651L345.81 443.472L352.022 431.684L347.194 429.001L345.91 418.449L344.332 416.769L342.041 417.024L321.866 410.232L311.523 410.763L304.58 418.739L299.361 420.629L286.91 417.595L282.404 425.101L276.23 424.841L269.859 416.874L255.925 416.46L252.031 411.075L249.165 392.186L245.951 387.578L240.933 375.403L241.641 366.811L248.852 366.882L258.992 372.866L261.642 370.751L251.865 357.126L247.776 364.02L244.883 362.05L235.891 366.816L236.533 372.092L233.323 374.141L231.837 370.105L229.493 368.218L228.556 371.815L233.933 382.13L233.353 384.759L238.441 389.723L239.389 398.547L241.136 404.866L239.676 412.341L235.732 411.47L236.313 408.841L232.521 405.969L231.748 399.998L220.879 376.871L224.758 370.729L225.317 363.246L222.609 356.563L224.328 343.821L223.794 323.496L214.474 344.079L209.048 345.829L211.699 351.264L210.503 360.128L209.427 357.266L207.627 356.355L204.945 361.183L197.449 354.869L200.401 337.207L195.48 326.453L191.762 322.567L199.225 311.606L184.939 322.603L170.669 317.121L172.798 309.34L184.587 290.461L187.943 288.198L198.326 294.057L207.549 293.393L227.177 310.532L229.141 315.643L233.713 319.821L243.353 319.876L263.878 291.508L253.331 313.217L257.86 318.115L266.35 322.081L265.953 334.658L300.866 337.574L282.754 353.514L281.752 356.763L274.052 359.844L273.997 366.606L269.498 368.986L272.083 374.073L275.62 377.087L278.541 376.813L295.858 374.691L294.717 385.25L300.477 391.894L321.929 375.046L335.879 404.966L344.482 411.875L343.835 415.064L347.1 417.59L350.392 414.532L296.662 229.144L388.09 402.697L426.99 238.955L412.694 403.431L445.322 392.378L458.571 385.357L446.116 342.712L475.872 359.947L484.918 357.323L486.662 348.542L491.575 343.104L487.745 316.301L491.061 303.436L478.381 266.978L468.562 263.631L449.735 245.973L426.99 238.955L410.177 228.113L411.409 215.643L395.818 207.447L392.464 196.381L401.737 191.202L410.746 184.633L411.586 176.736L405.834 161.642L408.883 148.28L412.285 147.282L413.196 139.724L434.66 135.296L437.563 129.7L437.035 119.371L440.351 114.056L437.422 108.142C408.001 95.7557 375.572 90.915 342.681 92.7043L373.435 120.83L344.315 163.598L302.925 99.1222L273.28 130.668L251.865 184.633L187.225 166.439L178.292 180.004L199.567 173.633L203.565 176.645L200.377 183.548L201.678 192.298L206.431 195.534L203.432 204.38L214.473 229.144L198.625 227.432L199.699 238.737L196.923 266.801L191.041 266.111L189.941 243.295L160.437 253.843L192.291 223.409L190.214 201.139L199.062 183.258L196.789 181.71L164.332 196.509L145.263 210.746L128.25 233.956L130.958 240.639L129.142 249.081L131.223 249.578L137.83 239.874L144.229 238.472L140.817 247.037L144.466 256.78L142.689 268.273L137.976 268.089L136.638 255.394L131.619 251.662L127.714 253.843L125.287 246.746L113.52 251.147L115.696 239.248C83.0622 309.384 75.7929 392.217 132.874 492.285L113.051 486.145ZM157.397 391.894L123.594 355.398L120.806 342.613L120.046 328.182L120.24 308.353L125.381 307.909L130.515 314.139L124.909 327.259L130.023 343.734L157.397 391.894ZM181.183 399.998L167.416 376.768L166.075 364.967L157.397 366.607L148.788 353.487L146.158 345.357L149.271 339.008L161.068 345.225L169.933 353.971L181.183 351.662L187.999 357.198L189.378 364.501L181.183 399.998Z" fill="black" fill-opacity="0.60784"/>
<path fill-rule="evenodd" clip-rule="evenodd" d="M451.101 214.106L473.201 210.396L479.031 205.446L473.731 198.206L472.671 193.786L465.951 183.706L466.131 174.866L459.411 171.866L453.401 177.166L455.881 182.466L455.701 189.366L463.121 189.716L461.531 197.496L452.691 203.686L453.401 206.506L457.111 207.926L449.871 212.696L451.101 214.106Z" fill="black" fill-opacity="0.60784"/>
<path fill-rule="evenodd" clip-rule="evenodd" d="M110.78 240.516L106.89 253.426L91.8701 255.366L92.9301 251.126L98.2301 249.716V247.946L93.9901 246.356L96.9901 240.876H100.88L103.36 237.866L110.61 238.396L110.78 240.516Z" fill="black" fill-opacity="0.60784"/>
<path fill-rule="evenodd" clip-rule="evenodd" d="M485.741 409.587L498.471 406.759L499.711 402.339L496.701 399.865L483.971 400.041L481.85 398.804L476.021 403.4L480.79 409.587H485.741Z" fill="black" fill-opacity="0.60784"/>
<path fill-rule="evenodd" clip-rule="evenodd" d="M342.125 213.677L337.705 215.267L338.415 220.397L340.185 222.867L337.175 225.527L338.235 237.547L344.245 235.597L344.425 226.057L341.065 222.517L342.835 220.927L342.125 213.677Z" fill="black" fill-opacity="0.60784"/>
<path fill-rule="evenodd" clip-rule="evenodd" d="M220.149 135.906L239.061 118.506L249.796 117.346L256.187 112.707L272.034 108.453L279.191 99.9457L291.459 86.7999L298.869 83.706L293.758 79.0667L280.976 77.9063H268.708L257.206 86.0267L229.091 111.16L218.869 126.239L220.149 135.906Z" fill="black" fill-opacity="0.60784"/>
<path fill-rule="evenodd" clip-rule="evenodd" d="M86.6846 164.357L99.7646 152.337L101.535 157.637L115.325 148.447L112.135 145.977L122.745 135.717L130.875 136.077L118.145 146.327L123.455 156.577L132.645 142.787V138.547L146.785 123.697L151.735 110.972L168.355 97.1832L189.215 85.8692L228.455 62.5352C228.455 62.5352 148.555 77.2072 86.6846 164.355V164.357Z" fill="black" fill-opacity="0.60784"/>
<path fill-rule="evenodd" clip-rule="evenodd" d="M111.075 490.336L102.945 470.536L108.955 463.466L101.535 448.256L86.3254 428.466L73.2454 416.436L58.0454 387.446L49.9154 354.216L43.1954 331.236L41.0754 311.086C36.4754 411.316 111.075 490.336 111.075 490.336Z" fill="black" fill-opacity="0.60784"/>
<defs>
<radialGradient id="paint0_radial_709_60773" cx="0" cy="0" r="1" gradientUnits="userSpaceOnUse" gradientTransform="translate(185.553 209.368) rotate(45.6993) scale(343.738 258.944)">
<stop stop-color="#577FFF"/>
<stop offset="1" stop-color="#00196E"/>
</radialGradient>
</defs>
</svg>
