<svg width="1728" height="1117" viewBox="0 0 1728 1117" fill="none" xmlns="http://www.w3.org/2000/svg">
<rect width="1728" height="1117" fill="#212121"/>
<path fill-rule="evenodd" clip-rule="evenodd" d="M1652.2 301.504C1652.2 369.798 1625.07 435.295 1576.78 483.586C1528.48 531.877 1462.99 559.007 1394.69 559.007C1326.39 559.007 1260.9 531.877 1212.6 483.586C1164.31 435.295 1137.18 369.798 1137.18 301.504C1137.18 233.209 1164.31 167.712 1212.6 119.421C1260.9 71.1298 1326.39 44 1394.69 44C1462.99 44 1528.48 71.1298 1576.78 119.421C1625.07 167.712 1652.2 233.209 1652.2 301.504V301.504Z" fill="url(#paint0_radial_709_61007)" stroke="black" stroke-width="3.00013" stroke-linecap="round" stroke-linejoin="round"/>
<path fill-rule="evenodd" clip-rule="evenodd" d="M1492.74 62.8268L1497.45 68.5158L1498.2 74.5158L1492.45 78.0158L1491.7 81.7658L1483.2 78.0158L1487.45 84.5158L1488.2 89.5158L1483.45 93.2658L1476.2 87.5158H1485.2L1484.2 83.2658L1473.7 79.0158L1462.2 77.5158L1457.7 75.0158L1447.2 73.2658L1436.45 78.5158L1432.7 79.5158L1432.95 84.5158L1427.7 93.2658L1417.95 104.016L1412.45 104.266L1412.95 111.261L1417.2 121.021L1422.45 121.761L1427.95 117.521L1433.7 118.261L1437.95 125.521L1440.95 132.261L1444.45 134.521L1452.45 128.021L1450.95 120.761L1455.7 114.021L1448.7 109.021L1446.45 101.266L1452.7 97.0158L1452.2 90.5158L1459.2 91.0158L1459.95 93.2658L1456.45 99.5158V103.516L1459.95 110.261L1463.95 111.261L1464.2 112.761H1467.95L1477.7 108.761L1482.7 111.261L1481.2 113.021H1472.45L1470.2 116.021L1473.7 122.261L1466.95 121.521L1467.7 135.261L1448.95 140.761L1444.45 139.021L1439.45 140.261L1434.95 137.261L1432.45 123.021L1424.2 130.261L1428.95 141.021L1414.45 143.761L1413.45 149.521L1402.45 156.021L1395.2 164.261L1389.45 164.521L1385.95 167.521L1374.45 167.021L1374.7 172.021L1383.7 175.521L1383.45 178.261L1387.7 183.021L1384.95 199.261L1356.45 195.261L1348.7 197.521L1349.45 210.761L1344.2 223.021L1345.7 236.261L1351.2 235.761L1358.2 243.761L1360.45 244.261L1362.2 242.761L1382.7 237.021L1390.95 230.761L1392.2 220.261L1395.45 215.761L1407.45 211.261L1406.95 202.521L1412.2 199.261L1421.95 202.261L1433.7 194.761L1439.95 197.021L1452.95 211.021L1458.2 213.021L1469.2 220.261L1473.45 227.761L1467.45 231.761L1455.7 232.521L1454.7 235.761L1470.45 241.521L1469.95 233.521H1473.45L1478.2 224.521L1474.7 220.521L1476.2 217.021L1479.7 219.521L1482.7 219.761L1481.45 216.261L1471.2 210.761L1470.2 208.261L1463.2 207.021L1457.45 200.261L1452.45 196.021L1449.45 189.021L1453.2 187.521L1454.2 190.021L1458.95 190.261L1462.95 194.761L1484.95 207.761L1485.2 215.021L1488.95 221.521L1494.95 225.521L1500.7 237.021L1508.95 238.021L1508.7 231.261L1512.2 226.761L1506.95 223.761L1502.95 215.761L1505.45 217.521L1507.45 217.261L1506.95 211.761L1516.7 212.761L1524.2 229.021L1534.32 235.141L1539.58 236.261L1540.2 231.761L1545.2 232.391L1560.08 228.891L1562.7 236.521L1563.58 258.761L1562.08 262.521L1550.2 263.521L1542.95 269.261L1517.08 266.141L1512.58 263.021L1506.45 262.141L1498.45 267.521L1499.08 276.641L1493.95 278.641L1487.45 277.141L1480.95 276.521L1471.45 268.021L1456.08 266.141L1446.95 261.891L1445.95 258.641L1450.58 251.761L1446.82 246.141L1449.2 241.641L1444.2 238.891L1439.58 238.391L1437.32 240.261H1424.08L1419.2 242.391L1410.7 240.141L1378.08 251.521L1374.08 249.261L1363.08 248.391L1361.82 245.391L1357.7 245.141L1356.7 249.521L1332.7 272.761L1332.2 280.521L1320.95 291.521L1311.45 293.761L1290.7 321.261L1283.7 334.521L1286.95 339.521L1283.7 365.261L1277.7 372.521L1281.2 380.761L1280.2 388.021L1298.45 408.021L1302.95 420.521L1333.95 443.521L1343.95 440.761L1369.45 444.761L1392.2 437.761L1412.2 437.261L1418.2 448.261L1435.7 446.261L1444.7 453.521L1439.95 463.021L1436.2 473.521L1439.95 480.521L1453.2 489.761L1458.2 502.521L1455.95 505.261L1459.45 512.021L1444.2 527.761L1444.95 534.021L1451.2 542.261L1451.45 548.521L1457.2 551.761C1488.49 545.441 1518.02 531.191 1544.2 511.201L1543.45 510.761V507.261L1573.45 483.521L1585.7 448.261L1618.7 395.521L1631.2 362.761L1630.95 346.521L1616.95 363.761L1611.95 363.521L1610.7 356.021L1604.7 349.521H1598.95L1596.45 340.521L1589.2 331.261L1587.45 318.761L1580.2 310.021L1566.7 285.261L1571.95 282.521L1585.7 300.761L1591.7 306.261L1594.95 318.521L1609.2 335.761L1611.95 355.521H1614.7L1633.2 325.021L1640.95 302.521L1641.95 273.761L1635.95 269.761L1632.7 261.761L1630.7 262.521V274.261L1626.2 279.021L1624.2 270.021L1615.7 264.021L1610.7 253.521L1614.7 251.021L1622.95 260.761L1629.2 261.021L1631.2 257.021L1637.2 261.521L1644.45 251.261L1649.35 262.321C1636.85 185.981 1596.24 113.421 1492.74 62.8308L1492.74 62.8268ZM1572.2 169.757L1577.45 170.757L1586.95 179.757L1595.7 191.257L1606.7 207.757L1602.7 211.017L1594.95 208.757L1592.2 194.757L1578.7 184.017L1572.2 169.757ZM1521.95 177.017L1529.2 177.757L1536.95 186.757L1543.2 180.517L1557.7 186.517L1564.45 191.757L1565.45 198.757L1552.2 200.257L1539.95 198.017L1531.95 206.257L1523.2 205.517L1517.95 200.257L1521.95 177.017Z" fill="black" fill-opacity="0.60784"/>
<path fill-rule="evenodd" clip-rule="evenodd" d="M1373.37 160.321L1395.47 156.611L1401.3 151.661L1396 144.421L1394.94 140.001L1388.22 129.921L1388.4 121.081L1381.68 118.081L1375.67 123.381L1378.15 128.681L1377.97 135.581L1385.39 135.931L1383.8 143.711L1374.96 149.901L1375.67 152.721L1379.38 154.141L1372.14 158.911L1373.37 160.321V160.321Z" fill="black" fill-opacity="0.60784"/>
<path fill-rule="evenodd" clip-rule="evenodd" d="M1373.9 135.751L1370.01 148.661L1354.99 150.601L1356.05 146.361L1361.35 144.951V143.181L1357.11 141.591L1360.11 136.111H1364L1366.48 133.101L1373.73 133.631L1373.9 135.751V135.751Z" fill="black" fill-opacity="0.60784"/>
<path fill-rule="evenodd" clip-rule="evenodd" d="M1351.45 95.0948L1364.18 92.2668L1365.42 87.8468L1362.41 85.3728L1349.68 85.5488L1347.56 84.3118L1341.73 88.9078L1346.5 95.0948H1351.45Z" fill="black" fill-opacity="0.60784"/>
<path fill-rule="evenodd" clip-rule="evenodd" d="M1438.25 203.811L1433.83 205.401L1434.54 210.531L1436.31 213.001L1433.3 215.661L1434.36 227.681L1440.37 225.731L1440.55 216.191L1437.19 212.651L1438.96 211.061L1438.25 203.811V203.811Z" fill="black" fill-opacity="0.60784"/>
<path fill-rule="evenodd" clip-rule="evenodd" d="M1285.34 99.3378L1311.5 83.4278L1326.35 82.3668L1335.19 78.1248L1357.11 74.2358L1367.01 66.4568L1383.98 54.4368L1394.23 51.6078L1387.16 47.3658L1369.48 46.3048H1352.51L1336.6 53.7298L1297.71 76.7108L1283.57 90.4988L1285.34 99.3378V99.3378Z" fill="black" fill-opacity="0.60784"/>
<path fill-rule="evenodd" clip-rule="evenodd" d="M1182.81 154.491L1195.89 142.471L1197.66 147.771L1211.45 138.581L1208.26 136.111L1218.87 125.851L1227 126.211L1214.27 136.461L1219.58 146.711L1228.77 132.921V128.681L1242.91 113.831L1247.86 101.106L1264.48 87.3168L1285.34 76.0028L1324.58 52.6688C1324.58 52.6688 1244.68 67.3408 1182.81 154.489V154.491Z" fill="black" fill-opacity="0.60784"/>
<path fill-rule="evenodd" clip-rule="evenodd" d="M1207.2 480.471L1199.07 460.671L1205.08 453.601L1197.66 438.391L1182.45 418.601L1169.37 406.571L1154.17 377.581L1146.04 344.351L1139.32 321.371L1137.2 301.221C1132.6 401.451 1207.2 480.471 1207.2 480.471V480.471Z" fill="black" fill-opacity="0.60784"/>
<path d="M183.322 979.902C184.514 978.937 186.257 979.12 187.223 980.312L192.78 987.174C193.505 988.07 194.84 988.171 195.652 987.352C210.229 972.634 212.641 949.687 201.442 932.261C200.819 931.29 199.492 931.111 198.596 931.837L191.734 937.394C191.139 937.875 190.404 938.072 189.698 937.997C188.992 937.923 188.314 937.578 187.833 936.981C186.868 935.789 187.051 934.045 188.243 933.08L195.105 927.523C196.001 926.798 196.102 925.463 195.283 924.651C180.565 910.074 157.618 907.662 140.191 918.861C139.221 919.484 139.042 920.811 139.768 921.707L145.325 928.569C146.29 929.761 146.107 931.505 144.915 932.47C144.32 932.952 143.585 933.148 142.879 933.074C142.173 932.999 141.492 932.657 141.011 932.06L135.454 925.198C134.729 924.302 133.394 924.201 132.582 925.02C116.86 940.89 115.239 966.356 129.62 984.118C144.004 1001.88 169.251 1005.59 188.043 993.509C189.013 992.885 189.192 991.558 188.466 990.662L182.909 983.8C181.946 982.611 182.13 980.867 183.322 979.902Z" fill="#4A1353"/>
<path d="M53.0295 999.74L42.3311 1008.4" stroke="#08851C" stroke-width="2" stroke-miterlimit="10" stroke-linecap="round"/>
<path d="M83.5815 1021.4L78.874 1025.22" stroke="#08851C" stroke-width="2" stroke-miterlimit="10" stroke-linecap="round"/>
<path d="M98.4195 1055.79L87.7236 1064.46" stroke="#08851C" stroke-width="2" stroke-miterlimit="10" stroke-linecap="round"/>
<path d="M160.636 989.295C178.921 991.216 195.301 977.952 197.223 959.667C199.145 941.382 185.88 925.002 167.596 923.08C149.311 921.158 132.93 934.423 131.008 952.708C129.086 970.992 142.352 987.373 160.636 989.295Z" fill="#FFCC4D"/>
<path d="M122.635 971.944C122.133 970.617 120.474 970.111 119.371 971.004L97.588 988.643C93.7712 991.734 91.6886 996.166 91.4547 1000.71C91.3755 1002.25 93.134 1002.96 94.3315 1001.99L96.3576 1000.35C99.9157 997.468 105.183 998.022 108.064 1001.58C110.945 1005.14 110.392 1010.41 106.833 1013.29L104.807 1014.93C103.61 1015.9 103.935 1017.76 105.457 1018.01C109.954 1018.72 114.721 1017.61 118.54 1014.52L140.323 996.877C141.426 995.984 141.275 994.255 140.082 993.488C136.218 991.005 132.672 987.887 129.623 984.122C126.573 980.356 124.261 976.24 122.635 971.944Z" fill="#556080"/>
<path d="M142.556 973.646L138.245 977.137" stroke="#0096E6" stroke-width="2" stroke-miterlimit="10" stroke-linecap="round"/>
<path d="M145.322 928.569L139.607 921.511C138.943 920.691 137.746 920.514 136.897 921.14C136.656 921.317 136.417 921.499 136.182 921.689C135.946 921.879 135.719 922.074 135.495 922.273C134.706 922.973 134.632 924.182 135.296 925.002L141.011 932.06L144.502 936.371C144.984 936.966 145.662 937.31 146.368 937.384C147.074 937.459 147.809 937.262 148.403 936.781C149.596 935.816 149.779 934.072 148.813 932.88L145.322 928.569Z" fill="#390342"/>
<path d="M183.732 976.001C182.767 974.809 181.023 974.626 179.831 975.591C178.639 976.556 178.456 978.3 179.421 979.492L182.912 983.803L188.627 990.861C189.291 991.681 190.488 991.858 191.338 991.232C191.578 991.055 191.817 990.873 192.052 990.683C192.288 990.493 192.516 990.298 192.739 990.099C193.528 989.399 193.602 988.189 192.938 987.37L187.223 980.312L183.732 976.001Z" fill="#390342"/>
<path d="M185.387 941.486C186.094 941.56 186.828 941.364 187.423 940.882L191.734 937.391L198.792 931.676C199.612 931.012 199.789 929.815 199.163 928.966C198.986 928.725 198.804 928.486 198.614 928.251C198.424 928.016 198.229 927.788 198.03 927.564C197.33 926.775 196.12 926.701 195.3 927.365L188.243 933.08L183.932 936.571C182.74 937.536 182.557 939.28 183.522 940.472C184.003 941.069 184.681 941.411 185.387 941.486Z" fill="#390342"/>
<path d="M167.885 920.321C166.362 920.161 164.997 921.264 164.836 922.79L164.257 928.308C164.096 929.834 165.203 931.197 166.726 931.357C168.248 931.517 169.614 930.414 169.774 928.888L170.354 923.37C170.515 921.844 169.411 920.481 167.885 920.321Z" fill="#390342"/>
<path d="M161.506 981.018C159.983 980.858 158.617 981.961 158.457 983.487L157.877 989.005C157.716 990.53 158.823 991.894 160.346 992.054C161.869 992.214 163.234 991.11 163.395 989.585L163.974 984.067C164.135 982.541 163.031 981.178 161.506 981.018Z" fill="#390342"/>
<path d="M197.513 956.908L191.995 956.328C190.472 956.168 189.107 957.271 188.946 958.797C188.786 960.323 189.892 961.686 191.415 961.846L196.933 962.426C198.456 962.586 199.822 961.483 199.982 959.957C200.142 958.431 199.039 957.068 197.513 956.908Z" fill="#390342"/>
<path d="M136.817 950.529L131.299 949.949C129.776 949.789 128.41 950.892 128.25 952.418C128.089 953.943 129.196 955.307 130.719 955.467L136.237 956.047C137.759 956.207 139.125 955.103 139.285 953.578C139.446 952.052 138.342 950.689 136.817 950.529Z" fill="#390342"/>
<path d="M163.245 964.464C167.817 964.945 171.912 961.628 172.392 957.057C172.873 952.486 169.556 948.391 164.985 947.911C160.414 947.43 156.319 950.746 155.839 955.317C155.358 959.889 158.674 963.984 163.245 964.464Z" fill="#390342"/>
<path d="M105.695 967.799L75.5139 992.239L68.4428 997.965C67.5844 998.661 66.325 998.528 65.6299 997.67L57.6713 987.842C56.9762 986.983 57.1086 985.724 57.967 985.029L65.0381 979.303L95.2194 954.862C98.7927 951.969 104.032 952.519 106.926 956.093C109.819 959.666 109.269 964.905 105.695 967.799Z" fill="#4A1353"/>
<path d="M56.6051 989.7L51.0901 994.166C50.2317 994.861 50.0993 996.121 50.7945 996.979L55.2604 1002.49C55.9556 1003.35 57.2149 1003.48 58.0733 1002.79L63.5884 998.324C64.4468 997.629 64.5791 996.369 63.884 995.511L59.418 989.996C58.7229 989.137 57.4635 989.005 56.6051 989.7Z" fill="#FFCC4D"/>
<path d="M87.9231 1010.75L81.6428 1015.83C80.7844 1016.53 80.652 1017.79 81.3471 1018.65L85.8131 1024.16C86.5082 1025.02 87.7676 1025.15 88.626 1024.46L94.9063 1019.37C95.7647 1018.68 95.8971 1017.42 95.202 1016.56L90.736 1011.04C90.0409 1010.18 88.7815 1010.05 87.9231 1010.75Z" fill="#FFCC4D"/>
<path d="M140.612 1010.92L110.431 1035.36L103.36 1041.08C102.501 1041.78 102.369 1043.04 103.064 1043.9L111.023 1053.72C111.718 1054.58 112.977 1054.72 113.835 1054.02L120.907 1048.29L151.088 1023.85C154.661 1020.96 155.212 1015.72 152.318 1012.15C149.427 1008.57 144.185 1008.02 140.612 1010.92Z" fill="#4A1353"/>
<path d="M87.855 963.4L95.8126 973.227C96.5077 974.085 97.7671 974.218 98.6255 973.523L99.8287 972.548C100.687 971.853 100.819 970.594 100.124 969.735L92.1668 959.908C91.4716 959.05 90.2123 958.918 89.3539 959.613L88.1506 960.587C87.2922 961.282 87.1599 962.542 87.855 963.4Z" fill="#390342"/>
<path d="M134.745 1015.66L133.542 1016.64C132.684 1017.33 132.551 1018.59 133.247 1019.45L141.204 1029.28C141.9 1030.14 143.159 1030.27 144.017 1029.57L145.221 1028.6C146.079 1027.9 146.211 1026.65 145.516 1025.79L137.559 1015.96C136.863 1015.1 135.604 1014.97 134.745 1015.66Z" fill="#390342"/>
<path d="M101.997 1045.75L96.4817 1050.22C95.6233 1050.91 95.4909 1052.17 96.1861 1053.03L100.652 1058.55C101.347 1059.41 102.606 1059.54 103.465 1058.84L108.98 1054.38C109.838 1053.68 109.971 1052.42 109.276 1051.56L104.81 1046.05C104.114 1045.19 102.855 1045.06 101.997 1045.75Z" fill="#FFCC4D"/>
<path d="M96.1762 978.083L100.642 983.598C101.337 984.456 102.597 984.589 103.455 983.894L108.97 979.428C109.829 978.733 109.961 977.473 109.266 976.615L104.8 971.1C104.105 970.241 102.845 970.109 101.987 970.804L96.4718 975.27C95.6134 975.965 95.4811 977.225 96.1762 978.083Z" fill="#FFCC4D"/>
<path d="M129.919 1005.3L124.404 1009.76C123.545 1010.46 123.413 1011.72 124.108 1012.58L128.574 1018.09C129.269 1018.95 130.528 1019.08 131.387 1018.39L136.902 1013.92C137.761 1013.23 137.893 1011.97 137.198 1011.11L132.731 1005.59C132.036 1004.73 130.777 1004.6 129.919 1005.3Z" fill="#FFCC4D"/>
<path d="M185.914 1067.27C187.438 1067.43 188.803 1066.32 188.963 1064.8C189.123 1063.27 188.018 1061.91 186.494 1061.75C184.971 1061.59 183.606 1062.69 183.445 1064.22C183.285 1065.74 184.391 1067.11 185.914 1067.27Z" fill="#3B94D9"/>
<path d="M181.697 1027.77C183.22 1027.93 184.585 1026.83 184.745 1025.3C184.906 1023.78 183.8 1022.41 182.277 1022.25C180.753 1022.09 179.388 1023.2 179.228 1024.72C179.067 1026.25 180.173 1027.61 181.697 1027.77Z" fill="#008AE6"/>
<path d="M142.06 1059.87C143.584 1060.03 144.949 1058.92 145.109 1057.4C145.269 1055.87 144.164 1054.51 142.64 1054.35C141.117 1054.19 139.752 1055.29 139.591 1056.82C139.431 1058.34 140.537 1059.71 142.06 1059.87Z" fill="#3B94D9"/>
<path d="M88.6055 931.515C90.1292 931.675 91.4942 930.569 91.6544 929.046C91.8145 927.522 90.7091 926.157 89.1854 925.997C87.6617 925.837 86.2966 926.942 86.1365 928.466C85.9763 929.989 87.0817 931.354 88.6055 931.515Z" fill="#3B94D9"/>
<path d="M50.2862 1030.7C51.8099 1030.86 53.175 1029.75 53.3351 1028.23C53.4953 1026.7 52.3899 1025.34 50.8662 1025.18C49.3424 1025.02 47.9774 1026.12 47.8172 1027.65C47.6571 1029.17 48.7625 1030.54 50.2862 1030.7Z" fill="#008AE6"/>
<path d="M106.834 1013.28L99.7661 1019.01C98.9077 1019.7 97.6483 1019.57 96.9532 1018.71L88.9946 1008.88C88.2995 1008.02 88.4319 1006.76 89.2903 1006.07L96.3584 1000.35C99.9164 997.465 105.183 998.019 108.065 1001.58C110.943 1005.13 110.389 1010.4 106.834 1013.28Z" fill="#4A1353"/>
<path d="M122.864 992.114C122.158 992.04 121.48 991.695 120.998 991.101C120.033 989.909 120.216 988.165 121.408 987.2L140.811 971.49C142.003 970.525 143.747 970.708 144.712 971.9C145.678 973.092 145.494 974.836 144.302 975.801L124.899 991.511C124.305 991.995 123.57 992.188 122.864 992.114Z" fill="#390342"/>
<circle cx="169.5" cy="463.5" r="2.5" fill="#008AE6"/>
<circle cx="162" cy="122" r="5" fill="#D9D9D9"/>
<circle cx="285" cy="652" r="5" fill="#D9D9D9"/>
<circle cx="739" cy="122" r="5" fill="#D9D9D9"/>
<circle cx="516" cy="221" r="5" fill="#FFD983"/>
<circle cx="1048.5" cy="847.5" r="1.5" fill="#FFD983"/>
<circle cx="780" cy="816" r="5" fill="#D9D9D9"/>
<circle cx="431" cy="920" r="5" fill="#D9D9D9"/>
<circle cx="1289" cy="930" r="5" fill="#D9D9D9"/>
<circle cx="1599" cy="970" r="5" fill="#D9D9D9"/>
<circle cx="421" cy="90" r="5" fill="#D9D9D9"/>
<circle cx="729" cy="475" r="5" fill="#D9D9D9"/>
<circle cx="820" cy="324" r="3" fill="#FFAC33"/>
<circle cx="1470" cy="694" r="6" fill="#FFCC4D"/>
<circle cx="869" cy="1027" r="5" fill="#D9D9D9"/>
<circle cx="962" cy="113" r="5" fill="#DD2E44"/>
<circle cx="1657" cy="74" r="5" fill="#D9D9D9"/>
<defs>
<radialGradient id="paint0_radial_709_61007" cx="0" cy="0" r="1" gradientUnits="userSpaceOnUse" gradientTransform="translate(1281.68 199.502) rotate(45.6993) scale(343.738 258.944)">
<stop stop-color="#577FFF"/>
<stop offset="1" stop-color="#00196E"/>
</radialGradient>
</defs>
</svg>
